<svg xmlns="http://www.w3.org/2000/svg" width="44" height="44" viewBox="0 0 44 44">
  <g id="Group_1261" data-name="Group 1261" transform="translate(-0.407 -0.199)">
    <g id="Ellipse_67" data-name="Ellipse 67" transform="translate(0.407 0.199)" fill="#fff" stroke="#054562" stroke-width="2">
      <circle cx="22" cy="22" r="22" stroke="none"/>
      <circle cx="22" cy="22" r="21" fill="none"/>
    </g>
    <g id="camera" transform="translate(7.271 11.01)">
      <path id="Path_2918" data-name="Path 2918" d="M29.035,20.607V8.993A1.936,1.936,0,0,0,27.1,7.057H24.832a5.807,5.807,0,0,1-4.1-1.7l-1.607-1.6a1.936,1.936,0,0,0-1.366-.57H13.218a1.936,1.936,0,0,0-1.369.567l-1.6,1.6a5.807,5.807,0,0,1-4.107,1.7H3.871A1.936,1.936,0,0,0,1.936,8.993V20.607a1.936,1.936,0,0,0,1.936,1.936H27.1A1.936,1.936,0,0,0,29.035,20.607ZM3.871,5.121A3.871,3.871,0,0,0,0,8.993V20.607a3.871,3.871,0,0,0,3.871,3.871H27.1a3.871,3.871,0,0,0,3.871-3.871V8.993A3.871,3.871,0,0,0,27.1,5.121H24.832a3.872,3.872,0,0,1-2.738-1.134l-1.6-1.6A3.871,3.871,0,0,0,17.753,1.25H13.218A3.872,3.872,0,0,0,10.48,2.384l-1.6,1.6A3.871,3.871,0,0,1,6.142,5.121Z" transform="translate(0 -1.25)" fill="#054562" fill-rule="evenodd"/>
      <path id="Path_2919" data-name="Path 2919" d="M9.588,14.74A4.841,4.841,0,1,0,4.87,9.9,4.841,4.841,0,0,0,9.588,14.74Zm0,1.936A6.776,6.776,0,1,0,2.812,9.9a6.774,6.774,0,0,0,6.776,6.776Z" transform="translate(5.897 2.681)" fill="#054562" fill-rule="evenodd"/>
      <path id="Path_2920" data-name="Path 2920" d="M3.187,4.682a.969.969,0,1,1-.968-.915.969.969,0,0,1,.968.915Z" transform="translate(2.62 4.03)" fill="#054562"/>
    </g>
  </g>
</svg>
