<svg xmlns="http://www.w3.org/2000/svg" width="30.998" height="25.407" viewBox="0 0 30.998 25.407">
  <g id="Group_16938" data-name="Group 16938" transform="translate(-1515.5 -156.093)">
    <rect id="Rectangle_5023" data-name="Rectangle 5023" width="21" height="21" rx="3" transform="translate(1516 160)" fill="#fff" stroke="#054562" stroke-width="1"/>
    <path id="checkmark" d="M23.817,4.616,9.162,19.248a1.631,1.631,0,0,1-1.255.4,1.712,1.712,0,0,1-1.16-.4L.426,12.926a1.486,1.486,0,0,1,0-2.084L2.533,8.736a1.417,1.417,0,0,1,1.042-.426,1.417,1.417,0,0,1,1.042.426l3.338,3.338L19.627.426a1.486,1.486,0,0,1,2.084,0L23.818,2.51a1.514,1.514,0,0,1,0,2.106Z" transform="translate(1522.49 156.093) rotate(8)" fill="#e9a944"/>
  </g>
</svg>
